# xmcd
#
# Track frame offsets:
# 150
# 13761
# 30993
# 44586
# 64868
# 80344
# 93708
# 105858
# 120027
# 134310
# 148585
# 165401
# 179682
# 199896
# 213376
# 227402
#
# Disc length: 3190 seconds
#
#
# Revision: 1
# Processed by: cddbd v1.5PL3 Copyright (c) Steve Scherf et al.
# Submitted via: FreeRIP 2.53 
#
DISCID=cf0c7410
DTITLE=Daniel - Meu reino encantado 2
DYEAR=1900
DGENRE=
TTITLE0=Encanto da natureza
TTITLE1=Mundo velho
TTITLE2=Paixão dupla
TTITLE3=Pagode em Brasília.na praça.tudo certo
TTITLE4=Rolinha cabloca
TTITLE5=Versos aos pés do homem
TTITLE6=Moradia
TTITLE7=Cobra venenosa
TTITLE8=Pra tudo se dá um jeito
TTITLE9=Cabelo loiro
TTITLE10=Consagração
TTITLE11=Viúva rica
TTITLE12=Travessia do araguaia
TTITLE13=Tudo é beleza
TTITLE14=Minha vida
TTITLE15=Minas gerais
EXTD=
EXTT0=
EXTT1=
EXTT2=
EXTT3=
EXTT4=
EXTT5=
EXTT6=
EXTT7=
EXTT8=
EXTT9=
EXTT10=
EXTT11=
EXTT12=
EXTT13=
EXTT14=
EXTT15=
PLAYORDER=
